<?xml version="1.0" encoding="UTF-8"?>
<svg width="77px" height="77px" viewBox="0 0 77 77" version="1.1" xmlns="http://www.w3.org/2000/svg" xmlns:xlink="http://www.w3.org/1999/xlink">
    <!-- Generator: Sketch 50.2 (55047) - http://www.bohemiancoding.com/sketch -->
    <title>Shape</title>
    <desc>Created with Sketch.</desc>
    <defs></defs>
    <g id="Page-1" stroke="none" stroke-width="1" fill="none" fill-rule="evenodd">
        <g id="A4" transform="translate(-549.000000, -372.000000)" fill="#DC4A4A" fill-rule="nonzero">
            <g id="times-circle-regular" transform="translate(549.000000, 372.000000)">
                <path d="M38.5,0 C17.2318548,0 0,17.2318548 0,38.5 C0,59.7681452 17.2318548,77 38.5,77 C59.7681452,77 77,59.7681452 77,38.5 C77,17.2318548 59.7681452,0 38.5,0 Z M38.5,69.5483871 C21.3457661,69.5483871 7.4516129,55.6542339 7.4516129,38.5 C7.4516129,21.3457661 21.3457661,7.4516129 38.5,7.4516129 C55.6542339,7.4516129 69.5483871,21.3457661 69.5483871,38.5 C69.5483871,55.6542339 55.6542339,69.5483871 38.5,69.5483871 Z M54.303629,28.8439516 L44.6475806,38.5 L54.303629,48.1560484 C55.0332661,48.8856855 55.0332661,50.0655242 54.303629,50.7951613 L50.7951613,54.303629 C50.0655242,55.0332661 48.8856855,55.0332661 48.1560484,54.303629 L38.5,44.6475806 L28.8439516,54.303629 C28.1143145,55.0332661 26.9344758,55.0332661 26.2048387,54.303629 L22.696371,50.7951613 C21.9667339,50.0655242 21.9667339,48.8856855 22.696371,48.1560484 L32.3524194,38.5 L22.696371,28.8439516 C21.9667339,28.1143145 21.9667339,26.9344758 22.696371,26.2048387 L26.2048387,22.696371 C26.9344758,21.9667339 28.1143145,21.9667339 28.8439516,22.696371 L38.5,32.3524194 L48.1560484,22.696371 C48.8856855,21.9667339 50.0655242,21.9667339 50.7951613,22.696371 L54.303629,26.2048387 C55.0332661,26.9344758 55.0332661,28.1143145 54.303629,28.8439516 Z" id="Shape"></path>
            </g>
        </g>
    </g>
</svg>