<?xml version="1.0" encoding="UTF-8"?>
<svg width="61px" height="61px" viewBox="0 0 61 61" version="1.1" xmlns="http://www.w3.org/2000/svg" xmlns:xlink="http://www.w3.org/1999/xlink">
    <!-- Generator: Sketch 50.2 (55047) - http://www.bohemiancoding.com/sketch -->
    <title>Shape</title>
    <desc>Created with Sketch.</desc>
    <defs></defs>
    <g id="Page-1" stroke="none" stroke-width="1" fill="none" fill-rule="evenodd">
        <g id="A4" transform="translate(-531.000000, -392.000000)" fill="#FFFFFF" fill-rule="nonzero">
            <g id="directions" transform="translate(495.000000, 392.000000)">
                <path d="M96.1076519,28.3492123 L68.6507877,0.89234809 C67.4609902,-0.29744936 65.5390098,-0.29744936 64.3492123,0.89234809 L36.8923481,28.3492123 C35.7025506,29.5390098 35.7025506,31.4609902 36.8923481,32.6507877 L64.3492123,60.1076519 C65.5390098,61.2974494 67.4609902,61.2974494 68.6507877,60.1076519 L96.1076519,32.6507877 C97.2974494,31.4914979 97.2974494,29.5695174 96.1076519,28.3492123 Z M72.5862716,38.1421605 L72.5862716,30.5152538 L60.3832208,30.5152538 L60.3832208,39.6675419 L54.2816954,39.6675419 L54.2816954,27.4644911 C54.2816954,25.7865716 55.6545386,24.4137284 57.3324581,24.4137284 L72.5862716,24.4137284 L72.5862716,16.7868217 L83.263941,27.4644911 L72.5862716,38.1421605 Z" id="Shape"></path>
            </g>
        </g>
    </g>
</svg>